<svg width="24" height="24" viewBox="0 0 24 24" fill="none" xmlns="http://www.w3.org/2000/svg">
<g clip-path="url(#clip0_255_713)">
<path d="M14.447 1.10597C14.684 1.22462 14.8642 1.43251 14.948 1.68396C15.0319 1.93541 15.0124 2.20985 14.894 2.44697L14.118 3.99997H18C18.5304 3.99997 19.0391 4.21068 19.4142 4.58576C19.7893 4.96083 20 5.46954 20 5.99997V20C20 20.5304 19.7893 21.0391 19.4142 21.4142C19.0391 21.7893 18.5304 22 18 22H6C5.46957 22 4.96086 21.7893 4.58579 21.4142C4.21071 21.0391 4 20.5304 4 20V5.99997C4 5.46954 4.21071 4.96083 4.58579 4.58576C4.96086 4.21068 5.46957 3.99997 6 3.99997H9.882L9.106 2.44697C8.99702 2.21106 8.98416 1.94199 9.07014 1.69676C9.15611 1.45153 9.33418 1.2494 9.56661 1.13318C9.79904 1.01697 10.0676 0.995797 10.3153 1.07415C10.5631 1.15251 10.7707 1.32424 10.894 1.55297L12 3.76297L13.106 1.55297C13.2246 1.31596 13.4325 1.13574 13.684 1.05193C13.9354 0.968111 14.2099 0.987549 14.447 1.10597ZM10.882 5.99997H6V20H18V5.99997H13C12.9998 6.22507 12.9236 6.4435 12.7838 6.61993C12.644 6.79636 12.4488 6.92046 12.2297 6.97217C12.0106 7.02387 11.7805 7.00015 11.5766 6.90484C11.3727 6.80953 11.2069 6.64821 11.106 6.44697L10.882 5.99997ZM13.5 14C14.163 14 14.7989 14.2634 15.2678 14.7322C15.7366 15.201 16 15.8369 16 16.5V17C16 17.2652 15.8946 17.5195 15.7071 17.7071C15.5196 17.8946 15.2652 18 15 18C14.7348 18 14.4804 17.8946 14.2929 17.7071C14.1054 17.5195 14 17.2652 14 17V16.5C14 16.3674 13.9473 16.2402 13.8536 16.1464C13.7598 16.0526 13.6326 16 13.5 16H10.5C10.3674 16 10.2402 16.0526 10.1464 16.1464C10.0527 16.2402 10 16.3674 10 16.5V17C10 17.2652 9.89464 17.5195 9.70711 17.7071C9.51957 17.8946 9.26522 18 9 18C8.73478 18 8.48043 17.8946 8.29289 17.7071C8.10536 17.5195 8 17.2652 8 17V16.5C8 15.8369 8.26339 15.201 8.73223 14.7322C9.20107 14.2634 9.83696 14 10.5 14H13.5ZM12 8.99997C12.5304 8.99997 13.0391 9.21068 13.4142 9.58576C13.7893 9.96083 14 10.4695 14 11C14 11.5304 13.7893 12.0391 13.4142 12.4142C13.0391 12.7893 12.5304 13 12 13C11.4696 13 10.9609 12.7893 10.5858 12.4142C10.2107 12.0391 10 11.5304 10 11C10 10.4695 10.2107 9.96083 10.5858 9.58576C10.9609 9.21068 11.4696 8.99997 12 8.99997Z" fill="#C7DBFF"/>
</g>
<defs>
<clipPath id="clip0_255_713">
<rect width="24" height="24" fill="white"/>
</clipPath>
</defs>
</svg>
