<svg width="64" height="19" viewBox="0 0 64 19" fill="none" xmlns="http://www.w3.org/2000/svg">
<g clip-path="url(#clip0_429_46)">
<path d="M39.6956 14.8434C35.9808 17.5365 30.5966 18.9734 25.9609 18.9734C19.4608 18.9734 13.6091 16.6087 9.1821 12.6757C8.83429 12.3664 9.14593 11.9449 9.56331 12.1858C14.341 14.92 20.2483 16.5649 26.3504 16.5649C30.4658 16.5649 34.993 15.7274 39.1557 13.9894C39.7846 13.7267 40.3105 14.3945 39.6956 14.8434Z" fill="#FF9900"/>
<path d="M41.2399 13.1055C40.7668 12.5088 38.1011 12.8236 36.9046 12.9632C36.5401 13.007 36.4845 12.6949 36.8128 12.4705C38.9359 11.0008 42.4197 11.425 42.8259 11.9177C43.2322 12.413 42.7202 15.8479 40.7251 17.4873C40.419 17.7391 40.1268 17.605 40.2632 17.2711C40.7112 16.1708 41.7157 13.7049 41.2399 13.1055Z" fill="#FF9900"/>
<path d="M36.9881 2.09476V0.666083C36.9881 0.449866 37.1551 0.30481 37.3554 0.30481H43.8582C44.0669 0.30481 44.2339 0.452603 44.2339 0.666083V1.88949C44.2311 2.09476 44.0558 2.36297 43.7442 2.7872L40.3745 7.51934C41.6266 7.48923 42.9483 7.67261 44.0836 8.3021C44.3396 8.44442 44.4092 8.65242 44.4287 8.85769V10.3822C44.4287 10.5902 44.1949 10.8338 43.9501 10.7079C41.9494 9.67603 39.2921 9.56382 37.0799 10.7188C36.8546 10.8392 36.618 10.5984 36.618 10.3904V8.94254C36.618 8.7099 36.6208 8.31305 36.8573 7.95998L40.7613 2.45329H37.3638C37.1551 2.45329 36.9881 2.30824 36.9881 2.09476Z" fill="#221F1F"/>
<path d="M13.2669 11.0089H11.2885C11.0993 10.9953 10.949 10.8557 10.9351 10.6778V0.690742C10.9351 0.490946 11.1048 0.332203 11.3163 0.332203H13.1611C13.3531 0.340409 13.5062 0.485471 13.5201 0.666108V1.97162H13.5563C14.0376 0.709898 14.942 0.12146 16.1607 0.12146C17.399 0.12146 18.1725 0.709898 18.729 1.97162C19.2076 0.709898 20.2956 0.12146 21.4615 0.12146C22.2907 0.12146 23.1978 0.458101 23.7515 1.21349C24.3776 2.05373 24.2496 3.2744 24.2496 4.34453L24.2468 10.6477C24.2468 10.8475 24.0771 11.0089 23.8656 11.0089H21.89C21.6924 10.9953 21.5338 10.8393 21.5338 10.6477V5.35446C21.5338 4.93297 21.5728 3.88199 21.4782 3.4824C21.3307 2.81186 20.8883 2.62301 20.3151 2.62301C19.8365 2.62301 19.3356 2.93775 19.1325 3.44135C18.9294 3.94494 18.9488 4.78791 18.9488 5.35446V10.6477C18.9488 10.8475 18.7791 11.0089 18.5676 11.0089H16.592C16.3917 10.9953 16.2358 10.8393 16.2358 10.6477L16.2331 5.35446C16.2331 4.24053 16.4195 2.60111 15.0143 2.60111C13.5924 2.60111 13.6481 4.19947 13.6481 5.35446V10.6477C13.6481 10.8475 13.4783 11.0089 13.2669 11.0089Z" fill="#221F1F"/>
<path d="M49.8324 0.12146C52.768 0.12146 54.3568 2.60111 54.3568 5.75405C54.3568 8.80024 52.601 11.2169 49.8324 11.2169C46.9496 11.2169 45.3803 8.73729 45.3803 5.64731C45.3803 2.53816 46.9691 0.12146 49.8324 0.12146ZM49.8491 2.16047C48.391 2.16047 48.2992 4.11463 48.2992 5.33256C48.2992 6.55323 48.2797 9.15878 49.8324 9.15878C51.3656 9.15878 51.4379 7.05683 51.4379 5.77594C51.4379 4.93297 51.4017 3.92578 51.1429 3.1266C50.9203 2.43142 50.4779 2.16047 49.8491 2.16047Z" fill="#221F1F"/>
<path d="M58.1633 11.0089H56.1933C55.9957 10.9953 55.8371 10.8393 55.8371 10.6477L55.8344 0.657897C55.851 0.474523 56.0152 0.332203 56.2156 0.332203H58.0493C58.2218 0.340409 58.3637 0.455365 58.4026 0.61137V2.13857H58.4388C58.9925 0.772848 59.7689 0.12146 61.1351 0.12146C62.0227 0.12146 62.8881 0.436206 63.4446 1.29834C63.9622 2.09752 63.9622 3.44135 63.9622 4.40748V10.6942C63.9399 10.8694 63.7757 11.0089 63.581 11.0089H61.597C61.4161 10.9953 61.2659 10.8639 61.2464 10.6942V5.26961C61.2464 4.17758 61.3744 2.57922 60.0082 2.57922C59.5268 2.57922 59.0844 2.8967 58.8645 3.3784C58.5863 3.98873 58.5501 4.59633 58.5501 5.26961V10.6477C58.5473 10.8475 58.3748 11.0089 58.1633 11.0089Z" fill="#221F1F"/>
<path d="M31.8042 6.23845V5.81697C30.374 5.81697 28.8631 6.11803 28.8631 7.7766C28.8631 8.61684 29.3055 9.18612 30.0651 9.18612C30.6217 9.18612 31.1197 8.84948 31.4342 8.30209C31.8237 7.62881 31.8042 6.99658 31.8042 6.23845ZM33.7993 10.9815C33.6685 11.0965 33.4793 11.1047 33.3319 11.0281C32.6752 10.4916 32.5583 10.2426 32.1966 9.73077C31.1114 10.8201 30.3434 11.1458 28.9354 11.1458C27.2715 11.1458 25.9748 10.1358 25.9748 8.11325C25.9748 6.53404 26.8457 5.45843 28.084 4.93294C29.158 4.46766 30.6578 4.38555 31.8042 4.25692V4.00512C31.8042 3.54258 31.8404 2.9952 31.5649 2.59561C31.3229 2.23707 30.861 2.08927 30.4547 2.08927C29.7006 2.08927 29.0272 2.46971 28.8631 3.25794C28.8297 3.43311 28.6989 3.60553 28.5208 3.61374L26.6009 3.41121C26.4395 3.37563 26.2614 3.24699 26.3059 3.00341C26.7483 0.715341 28.8492 0.0256348 30.7302 0.0256348C31.6929 0.0256348 32.9506 0.277432 33.7103 0.994505C34.673 1.87853 34.5812 3.05815 34.5812 4.34176V7.37427C34.5812 8.28567 34.9652 8.68526 35.3269 9.17791C35.4549 9.35307 35.4828 9.56381 35.3214 9.69519C34.9179 10.0264 34.2 10.6422 33.8049 10.987L33.7993 10.9815Z" fill="#221F1F"/>
<path d="M5.86808 6.23845V5.81697C4.43785 5.81697 2.92692 6.11803 2.92692 7.7766C2.92692 8.61684 3.36935 9.18612 4.12898 9.18612C4.68549 9.18612 5.18357 8.84948 5.498 8.30209C5.88756 7.62881 5.86808 6.99658 5.86808 6.23845ZM7.86317 10.9815C7.73239 11.0965 7.54317 11.1047 7.3957 11.0281C6.73902 10.4916 6.62215 10.2426 6.26042 9.73077C5.17522 10.8201 4.40724 11.1458 2.99927 11.1458C1.3353 11.1458 0.0386353 10.1358 0.0386353 8.11325C0.0386353 6.53404 0.909573 5.45843 2.14781 4.93294C3.22187 4.46766 4.72167 4.38555 5.86808 4.25692V4.00512C5.86808 3.54258 5.90425 2.9952 5.62878 2.59561C5.3867 2.23707 4.92479 2.08927 4.51854 2.08927C3.76447 2.08927 3.09109 2.46971 2.92692 3.25794C2.89353 3.43311 2.76275 3.60553 2.58467 3.61374L0.664709 3.41121C0.503321 3.37563 0.325237 3.24699 0.369758 3.00341C0.812184 0.715341 2.91301 0.0256348 4.79401 0.0256348C5.75678 0.0256348 7.01449 0.277432 7.77413 0.994505C8.73689 1.87853 8.64506 3.05815 8.64506 4.34176V7.37427C8.64506 8.28567 9.02906 8.68526 9.39079 9.17791C9.51879 9.35307 9.54661 9.56381 9.38522 9.69519C8.98175 10.0264 8.26386 10.6422 7.86873 10.987L7.86317 10.9815Z" fill="#221F1F"/>
</g>
<defs>
<clipPath id="clip0_429_46">
<rect width="64" height="19" fill="white"/>
</clipPath>
</defs>
</svg>
