<svg width="56" height="24" viewBox="0 0 56 24" fill="none" xmlns="http://www.w3.org/2000/svg">
<g clip-path="url(#clip0_426_186)">
<path d="M10.2378 3.0942C9.58158 3.90485 8.53158 4.54424 7.48158 4.4529C7.35033 3.3568 7.86439 2.1922 8.46595 1.47288C9.1222 0.639391 10.2706 0.0456708 11.2003 0C11.3097 1.14177 10.8831 2.2607 10.2378 3.0942ZM11.1894 4.66984C9.66908 4.5785 8.36752 5.57184 7.64564 5.57184C6.91283 5.57184 5.80814 4.71551 4.60502 4.73834C3.04095 4.76118 1.58627 5.68601 0.787829 7.1589C-0.852796 10.1047 0.361267 14.4662 1.9472 16.8639C2.72377 18.0514 3.65345 19.353 4.87845 19.3073C6.03783 19.2617 6.4972 18.5195 7.8972 18.5195C9.30814 18.5195 9.71283 19.3073 10.9378 19.2845C12.2066 19.2617 13.005 18.0971 13.7816 16.9096C14.6675 15.5623 15.0285 14.2493 15.0503 14.1808C15.0285 14.1579 12.6003 13.1874 12.5785 10.2645C12.5566 7.82112 14.4925 6.65652 14.58 6.58801C13.4863 4.89819 11.78 4.71551 11.1894 4.66984ZM19.9722 1.35871V19.1589H22.6191V13.0733H26.2831C29.63 13.0733 31.9816 10.6755 31.9816 7.20457C31.9816 3.73359 29.6738 1.35871 26.3706 1.35871H19.9722ZM22.6191 3.68792H25.6706C27.9675 3.68792 29.28 4.9667 29.28 7.21598C29.28 9.46527 27.9675 10.7555 25.6597 10.7555H22.6191V3.68792ZM36.816 19.2959C38.4785 19.2959 40.0206 18.4167 40.7206 17.0238H40.7753V19.1589H43.2253V10.2988C43.2253 7.72978 41.2566 6.07421 38.2269 6.07421C35.416 6.07421 33.3378 7.75262 33.2613 10.059H35.6456C35.8425 8.96289 36.816 8.24358 38.1503 8.24358C39.7691 8.24358 40.6769 9.0314 40.6769 10.4814V11.4634L37.3738 11.6689C34.3003 11.863 32.6378 13.176 32.6378 15.4596C32.6378 17.7659 34.355 19.2959 36.816 19.2959ZM37.5269 17.1836C36.116 17.1836 35.2191 16.4757 35.2191 15.3911C35.2191 14.2721 36.0831 13.6213 37.7347 13.5186L40.6769 13.3245V14.3292C40.6769 15.9962 39.3206 17.1836 37.5269 17.1836ZM46.4956 24C49.0769 24 50.291 22.9724 51.3519 19.8554L56.0003 6.24548H53.3097L50.1925 16.7612H50.1378L47.0206 6.24548H44.2535L48.7378 19.2046L48.4972 19.9924C48.0925 21.3283 47.4363 21.8421 46.266 21.8421C46.0581 21.8421 45.6535 21.8192 45.4894 21.7964V23.9315C45.6425 23.9772 46.2988 24 46.4956 24Z" fill="#0D0D0D"/>
</g>
<defs>
<clipPath id="clip0_426_186">
<rect width="56" height="24" fill="white"/>
</clipPath>
</defs>
</svg>
