<svg width="58" height="28" viewBox="0 0 58 28" fill="none" xmlns="http://www.w3.org/2000/svg">
<g clip-path="url(#clip0_428_16)">
<path d="M27.405 14.4777V21.3123H25.23V4.40942H30.885C32.2625 4.40942 33.5675 4.92386 34.5825 5.87924C35.5975 6.76113 36.105 8.08396 36.105 9.48029C36.105 10.8766 35.5975 12.126 34.5825 13.0813C33.5675 14.0367 32.335 14.5512 30.885 14.5512L27.405 14.4777ZM27.405 6.46717V12.3464H31.03C31.8275 12.3464 32.625 12.0525 33.1325 11.4645C34.2925 10.3622 34.2925 8.52491 33.205 7.42255L33.1325 7.34906C32.5525 6.76113 31.8275 6.39368 31.03 6.46717H27.405Z" fill="#221F1F"/>
<path d="M41.1075 9.40686C42.7025 9.40686 43.935 9.84781 44.8775 10.7297C45.82 11.6116 46.255 12.7874 46.255 14.2573V21.3124H44.225V19.6956H44.1525C43.2825 21.0184 42.05 21.6798 40.6 21.6798C39.3675 21.6798 38.28 21.3124 37.41 20.5775C36.6125 19.8426 36.105 18.8137 36.105 17.7113C36.105 16.5355 36.54 15.5801 37.41 14.8452C38.28 14.1103 39.5125 13.8163 40.9625 13.8163C42.2675 13.8163 43.2825 14.0368 44.08 14.5512V14.0368C44.08 13.3019 43.79 12.567 43.21 12.126C42.63 11.6116 41.905 11.3176 41.1075 11.3176C39.875 11.3176 38.9325 11.8321 38.28 12.8609L36.395 11.6851C37.555 10.1418 39.0775 9.40686 41.1075 9.40686ZM38.3525 17.7848C38.3525 18.3727 38.6425 18.8872 39.0775 19.1811C39.585 19.5486 40.165 19.7691 40.745 19.7691C41.615 19.7691 42.485 19.4016 43.1375 18.7402C43.8625 18.0788 44.225 17.2704 44.225 16.3885C43.5725 15.8741 42.63 15.5801 41.3975 15.5801C40.5275 15.5801 39.8025 15.8006 39.2225 16.2415C38.6425 16.609 38.3525 17.1234 38.3525 17.7848Z" fill="#221F1F"/>
<path d="M58 9.77429L50.8225 26.4567H48.6475L51.33 20.6509L46.6175 9.84778H48.9375L52.345 18.1522H52.4175L55.7525 9.84778H58V9.77429Z" fill="#221F1F"/>
<path d="M18.7775 13.0079C18.7775 12.3465 18.705 11.6851 18.6325 11.0237H9.57001V14.7717H14.7175C14.5 15.9476 13.8475 17.0499 12.8325 17.7113V20.1365H15.95C17.7625 18.4463 18.7775 15.9476 18.7775 13.0079Z" fill="#4285F4"/>
<path d="M9.57001 22.4882C12.18 22.4882 14.355 21.6063 15.95 20.1364L12.8325 17.7112C11.9625 18.2992 10.875 18.6666 9.57001 18.6666C7.10501 18.6666 4.93001 16.9763 4.20501 14.6246H1.01501V17.1233C2.68251 20.4304 5.94501 22.4882 9.57001 22.4882Z" fill="#34A853"/>
<path d="M4.205 14.6246C3.77 13.4488 3.77 12.126 4.205 10.8766V8.37793H1.015C-0.362502 11.0971 -0.362502 14.3307 1.015 17.1233L4.205 14.6246Z" fill="#FBBC04"/>
<path d="M9.56999 6.90812C10.9475 6.90812 12.2525 7.42255 13.2675 8.37793L16.0225 5.58528C14.2825 3.96849 11.9625 3.0131 9.64249 3.0866C6.01749 3.0866 2.68249 5.14434 1.08749 8.45143L4.27749 10.9501C4.92999 8.59841 7.10499 6.90812 9.56999 6.90812Z" fill="#EA4335"/>
</g>
<defs>
<clipPath id="clip0_428_16">
<rect width="58" height="28" fill="white"/>
</clipPath>
</defs>
</svg>
