<svg width="66" height="15" viewBox="0 0 66 15" fill="none" xmlns="http://www.w3.org/2000/svg">
<g clip-path="url(#clip0_429_18)">
<path d="M11.6145 0H8.36476C8.36476 2.71513 7.14065 5.19288 5.01302 6.82493L3.73062 7.80415L8.7145 14.7181H12.8094L8.21903 8.35312C10.3904 6.15727 11.6145 3.18991 11.6145 0Z" fill="#0D0D0D"/>
<path d="M3.32259 0H0V14.7181H3.32259V0Z" fill="#0D0D0D"/>
<path d="M16.9044 0H13.7712V14.7181H16.9044V0Z" fill="#0D0D0D"/>
<path d="M44.3886 4.25818C43.1937 4.25818 42.057 4.6291 41.2992 5.68251V4.54008H38.3264V14.7181H41.3429V9.37687C41.3429 7.83385 42.363 7.07717 43.5871 7.07717C44.8987 7.07717 45.6564 7.87836 45.6564 9.36204V14.733H48.6439V8.24928C48.6439 5.87539 46.7931 4.25818 44.3886 4.25818Z" fill="#0D0D0D"/>
<path d="M26.3767 4.54008V5.1929C25.5315 4.59942 24.5114 4.25818 23.4038 4.25818C20.4893 4.25818 18.1285 6.66174 18.1285 9.6291C18.1285 12.5965 20.4893 15 23.4038 15C24.5114 15 25.5315 14.6588 26.3767 14.0653V14.7181H29.3641V4.54008H26.3767ZM23.6516 12.2404C22.1506 12.2404 20.9411 11.0683 20.9411 9.6291C20.9411 8.18993 22.1506 7.01782 23.6516 7.01782C25.1526 7.01782 26.3621 8.18993 26.3621 9.6291C26.3621 11.0683 25.1526 12.2404 23.6516 12.2404Z" fill="#0D0D0D"/>
<path d="M33.9982 5.86051V4.54004H30.938V14.7181H34.0128V9.97031C34.0128 8.36793 35.7178 7.5074 36.8982 7.5074C36.9128 7.5074 36.9274 7.5074 36.9274 7.5074V4.54004C35.7178 4.54004 34.5957 5.07416 33.9982 5.86051Z" fill="#0D0D0D"/>
<path d="M57.9413 4.54008V5.1929C57.096 4.59942 56.076 4.25818 54.9684 4.25818C52.0539 4.25818 49.6931 6.66174 49.6931 9.6291C49.6931 12.5965 52.0539 15 54.9684 15C56.076 15 57.096 14.6588 57.9413 14.0653V14.7181H60.9287V4.54008H57.9413ZM55.2162 12.2404C53.7152 12.2404 52.5056 11.0683 52.5056 9.6291C52.5056 8.18993 53.7152 7.01782 55.2162 7.01782C56.7172 7.01782 57.9267 8.18993 57.9267 9.6291C57.9413 11.0683 56.7172 12.2404 55.2162 12.2404Z" fill="#0D0D0D"/>
<path d="M63.2458 4.83675C63.2458 4.68839 63.1437 4.59937 62.9834 4.59937H62.7066V5.37088H62.8377V5.08898H62.9834L63.1 5.37088H63.2458L63.1146 5.05931C63.202 5.0148 63.2458 4.94061 63.2458 4.83675ZM62.9834 4.95545H62.8377V4.71806H62.9834C63.0709 4.71806 63.1146 4.76257 63.1146 4.83675C63.1146 4.91094 63.0855 4.95545 62.9834 4.95545Z" fill="#0D0D0D"/>
<path d="M62.9397 4.27295C62.5463 4.27295 62.2257 4.59936 62.2257 4.99995C62.2402 5.40055 62.5463 5.72696 62.9397 5.72696C63.3332 5.72696 63.6538 5.40055 63.6538 4.99995C63.6538 4.59936 63.3332 4.27295 62.9397 4.27295ZM62.9397 5.59342C62.6191 5.59342 62.3714 5.32636 62.3714 4.99995C62.3714 4.67354 62.6337 4.40648 62.9397 4.40648C63.2603 4.40648 63.5081 4.67354 63.5081 4.99995C63.5081 5.32636 63.2458 5.59342 62.9397 5.59342Z" fill="#0D0D0D"/>
<path d="M64.1201 11.1128C63.0855 11.1128 62.2402 11.9733 62.2402 13.0267C62.2402 14.0802 63.0855 14.9407 64.1201 14.9407C65.1548 14.9407 66 14.0802 66 13.0267C66 11.9585 65.1548 11.1128 64.1201 11.1128Z" fill="#0D0D0D"/>
</g>
<defs>
<clipPath id="clip0_429_18">
<rect width="66" height="15" fill="white"/>
</clipPath>
</defs>
</svg>
