<svg width="46" height="28" viewBox="0 0 46 28" fill="none" xmlns="http://www.w3.org/2000/svg">
<g clip-path="url(#clip0_426_168)">
<path d="M16.7811 2.99451H29.2189V25.0056H16.7811V2.99451Z" fill="#FF5F00"/>
<path d="M17.5708 14.0002C17.5708 9.52802 19.703 5.56136 22.9802 2.99469C20.5717 1.12803 17.5313 0.000244141 14.2146 0.000244141C6.35708 0.000244141 0 6.26135 0 14.0002C0 21.7391 6.35708 28.0002 14.2146 28.0002C17.5313 28.0002 20.5717 26.8725 22.9802 25.0058C19.703 22.478 17.5708 18.4725 17.5708 14.0002Z" fill="#EB001B"/>
<path d="M46 14C46 21.7389 39.6429 28 31.7854 28C28.4687 28 25.4283 26.8722 23.0197 25.0056C26.3365 22.4389 28.4292 18.4722 28.4292 14C28.4292 9.52777 26.297 5.56111 23.0197 2.99445C25.4283 1.12778 28.4687 0 31.7854 0C39.6429 0 46 6.3 46 14Z" fill="#F79E1B"/>
</g>
<defs>
<clipPath id="clip0_426_168">
<rect width="46" height="28" fill="white"/>
</clipPath>
</defs>
</svg>
