<svg width="26" height="32" viewBox="0 0 26 32" fill="none" xmlns="http://www.w3.org/2000/svg">
<g clip-path="url(#clip0_426_181)">
<path d="M10.1711 6.40051C9.95138 6.4005 9.73887 6.47888 9.57182 6.62155C9.40476 6.76422 9.29414 6.96181 9.25984 7.17876L7.74532 16.7787L6.35381 25.6L6.35297 25.6074L6.35465 25.6L7.74616 16.7787C7.81691 16.3304 8.20305 16.0005 8.65692 16.0005H13.0938C17.559 16.0005 21.3489 12.7439 22.0411 8.33093C22.0938 7.99564 22.122 7.66355 22.1284 7.33582V7.33531H22.1279C20.9932 6.74017 19.6606 6.40051 18.2006 6.40051H10.1711Z" fill="#001C64"/>
<path d="M22.1281 7.33545C22.1219 7.66318 22.0933 7.9956 22.0407 8.33089C21.3486 12.7439 17.5587 16.0005 13.0934 16.0005H8.65658C8.20271 16.0005 7.81656 16.3304 7.74582 16.7787L6.35431 25.5999L5.48103 31.1343C5.46421 31.2412 5.47075 31.3505 5.50022 31.4547C5.52968 31.5588 5.58136 31.6553 5.6517 31.7376C5.72204 31.8198 5.80938 31.8859 5.90769 31.9312C6.00601 31.9765 6.11297 31.9999 6.22122 31.9999H11.0372C11.2569 32 11.4694 31.9216 11.6364 31.7789C11.8035 31.6362 11.9141 31.4386 11.9484 31.2217L13.2171 23.1787C13.2882 22.7304 13.6745 22.4 14.1284 22.4H16.9642C21.4294 22.4 25.2188 19.1435 25.9109 14.7309C26.4023 11.5982 24.8253 8.74849 22.1281 7.33545Z" fill="#0070E0"/>
<path d="M4.69949 0C4.4797 6.84475e-06 4.26713 0.07846 4.10006 0.221231C3.933 0.364002 3.82241 0.561711 3.78822 0.778753L0.00924158 24.7339C-0.00765971 24.8408 -0.0011697 24.9501 0.0282565 25.0543C0.0576827 25.1585 0.109348 25.2551 0.179699 25.3374C0.250049 25.4197 0.337417 25.4858 0.435775 25.5312C0.534132 25.5765 0.641145 25.6 0.749449 25.6H6.35365L7.74516 16.7787L9.25968 7.17874C9.29398 6.96179 9.40461 6.76421 9.57166 6.62154C9.73872 6.47887 9.95122 6.40049 10.1709 6.4005H18.2001C19.6605 6.4005 20.993 6.74066 22.1279 7.33496C22.2052 3.31742 18.889 0 14.329 0H4.69949Z" fill="#003087"/>
</g>
<defs>
<clipPath id="clip0_426_181">
<rect width="26" height="32" fill="white"/>
</clipPath>
</defs>
</svg>
