<svg width="60" height="20" viewBox="0 0 60 20" fill="none" xmlns="http://www.w3.org/2000/svg">
<g clip-path="url(#clip0_426_173)">
<path d="M39.0712 0.0307617C34.8152 0.0307617 31.0119 2.29548 31.0119 6.47972C31.0119 11.2783 37.7573 11.6097 37.7573 14.0203C37.7573 15.0354 36.6242 15.944 34.6891 15.944C31.9427 15.944 29.89 14.6744 29.89 14.6744L29.0117 18.8967C29.0117 18.8967 31.3763 19.9692 34.5157 19.9692C39.1689 19.9692 42.8303 17.5933 42.8303 13.3375C42.8303 8.26694 36.0569 7.94536 36.0569 5.70787C36.0569 4.91274 36.987 4.04153 38.9166 4.04153C41.0938 4.04153 42.8701 4.96487 42.8701 4.96487L43.7297 0.886776C43.7297 0.886776 41.7969 0.0307617 39.0712 0.0307617ZM0.133144 0.338543L0.0300903 0.954103C0.0300903 0.954103 1.82059 1.29052 3.43322 1.9616C5.50962 2.73113 5.65753 3.17912 6.00723 4.57052L9.81789 19.6518H14.9261L22.7957 0.338543H17.6992L12.6425 13.4697L10.5791 2.33912C10.3898 1.06523 9.43132 0.338543 8.25802 0.338543H0.133144ZM24.845 0.338543L20.847 19.6518H25.707L29.6909 0.338543H24.845ZM51.9506 0.338543C50.7787 0.338543 50.1578 0.982675 49.7022 2.10828L42.5821 19.6518H47.6786L48.6646 16.7279H54.8736L55.4732 19.6518H59.9701L56.047 0.338543H51.9506ZM52.6134 5.55638L54.1241 12.8037H50.0769L52.6134 5.55638Z" fill="#12288E"/>
</g>
<defs>
<clipPath id="clip0_426_173">
<rect width="60" height="20" fill="white"/>
</clipPath>
</defs>
</svg>
