<svg width="18" height="22" viewBox="0 0 18 22" fill="none" xmlns="http://www.w3.org/2000/svg">
<g clip-path="url(#clip0_881_2421)">
<path d="M14.9325 11.6656C14.9634 14.9886 17.8477 16.0944 17.8796 16.1085C17.8552 16.1865 17.4187 17.6844 16.3601 19.2316C15.4449 20.5692 14.495 21.9019 12.9986 21.9295C11.5285 21.9566 11.0556 21.0577 9.37471 21.0577C7.69426 21.0577 7.16898 21.9019 5.77718 21.9566C4.33287 22.0113 3.23301 20.5102 2.31026 19.1774C0.424548 16.4513 -1.01649 11.4739 0.918466 8.11416C1.87969 6.44565 3.59758 5.38916 5.46206 5.36206C6.88033 5.33504 8.21904 6.31624 9.08605 6.31624C9.9525 6.31624 11.5793 5.13627 13.2895 5.30954C14.0054 5.33937 16.0151 5.59869 17.3056 7.48761C17.2015 7.55208 14.9076 8.88751 14.9325 11.6657M12.1694 3.50596C12.9363 2.57777 13.4523 1.28571 13.3115 0C12.2062 0.044419 10.8697 0.736546 10.0769 1.66418C9.3664 2.48572 8.74418 3.80055 8.91208 5.06077C10.1441 5.1561 11.4025 4.43471 12.1694 3.50596Z" fill="black"/>
</g>
<defs>
<clipPath id="clip0_881_2421">
<rect width="17.88" height="22" fill="white"/>
</clipPath>
</defs>
</svg>
