<svg width="28" height="28" viewBox="0 0 28 28" fill="none" xmlns="http://www.w3.org/2000/svg">
<g clip-path="url(#clip0_767_225)">
<path d="M14 2.33337C15.2377 2.33337 16.4247 2.82504 17.2999 3.70021C18.175 4.57538 18.6667 5.76236 18.6667 7.00004H21.0409C21.6454 6.99996 22.2264 7.23453 22.6614 7.65432C23.0964 8.07412 23.3516 8.64637 23.373 9.25054L23.8724 23.2505C23.8835 23.5637 23.8314 23.8758 23.7193 24.1684C23.6072 24.4609 23.4373 24.7279 23.2197 24.9534C23.0022 25.1789 22.7415 25.3583 22.4531 25.4808C22.1648 25.6034 21.8547 25.6666 21.5414 25.6667H6.45869C6.14537 25.6666 5.83529 25.6034 5.54693 25.4808C5.25857 25.3583 4.99785 25.1789 4.78031 24.9534C4.56277 24.7279 4.39287 24.4609 4.28075 24.1684C4.16862 23.8758 4.11657 23.5637 4.12769 23.2505L4.62702 9.25054C4.64849 8.64637 4.9036 8.07412 5.33863 7.65432C5.77366 7.23453 6.35464 6.99996 6.95919 7.00004H9.33336C9.33336 5.76236 9.82502 4.57538 10.7002 3.70021C11.5754 2.82504 12.7623 2.33337 14 2.33337ZM9.33336 9.33337H6.95919L6.45869 23.3334H21.5414L21.0409 9.33337H18.6667V10.5C18.6664 10.7974 18.5525 11.0834 18.3484 11.2996C18.1442 11.5159 17.8652 11.646 17.5684 11.6634C17.2715 11.6808 16.9792 11.5843 16.7512 11.3934C16.5232 11.2025 16.3766 10.9318 16.3415 10.6365L16.3334 10.5V9.33337H11.6667V10.5C11.6664 10.7974 11.5525 11.0834 11.3484 11.2996C11.1442 11.5159 10.8652 11.646 10.5684 11.6634C10.2715 11.6808 9.97925 11.5843 9.75122 11.3934C9.52319 11.2025 9.37665 10.9318 9.34152 10.6365L9.33336 10.5V9.33337ZM14 4.66671C13.4114 4.66652 12.8444 4.88885 12.4127 5.28912C11.9811 5.68939 11.7167 6.23803 11.6725 6.82504L11.6667 7.00004H16.3334C16.3334 6.3812 16.0875 5.78771 15.6499 5.35012C15.2124 4.91254 14.6189 4.66671 14 4.66671Z" fill="#F2F2F2"/>
</g>
<defs>
<clipPath id="clip0_767_225">
<rect width="28" height="28" fill="white"/>
</clipPath>
</defs>
</svg>
