<svg xmlns="http://www.w3.org/2000/svg" version="1.0" width="2560.000000pt" height="611.000000pt" viewBox="0 0 2560.000000 611.000000" preserveAspectRatio="xMidYMid meet">

<g transform="translate(0.000000,611.000000) scale(0.100000,-0.100000)" fill="#ffffff" stroke="none">
<path d="M20375 5280 l830 -830 1367 0 1368 0 0 -1368 0 -1367 830 -830 830 -830 0 3028 0 3027 -3027 0 -3028 0 830 -830z" fill="#ffffff"/>
<path d="M2105 5633 c-15 -38 -485 -1204 -1045 -2593 -560 -1389 -1028 -2549 -1039 -2577 l-21 -53 698 0 698 0 108 287 c60 159 149 395 199 526 l90 237 1182 0 1183 0 200 -483 c110 -265 208 -501 217 -524 l17 -43 709 0 c390 0 709 3 708 8 0 4 -528 1193 -1173 2642 l-1172 2635 -766 3 -766 2 -27 -67z m1242 -2231 c232 -559 421 -1018 419 -1019 -1 -2 -367 -2 -813 -1 l-811 3 386 1022 c212 562 388 1020 391 1017 3 -3 196 -463 428 -1022z" fill="#ffffff"/>
<path d="M6620 3055 l0 -2645 660 0 660 0 2 1651 3 1652 710 -826 710 -826 105 -1 105 0 710 826 710 825 3 -1650 2 -1651 660 0 660 0 0 2645 0 2645 -577 -1 -578 0 -845 -978 c-725 -839 -847 -976 -860 -965 -8 7 -391 447 -850 978 l-835 965 -577 1 -578 0 0 -2645z" fill="#ffffff"/>
<path d="M13322 3058 l3 -2643 1125 -3 c1178 -3 1413 2 1704 39 1359 171 2194 899 2390 2084 44 263 47 706 8 961 -159 1022 -812 1762 -1819 2060 -230 68 -482 112 -752 134 -84 6 -611 10 -1398 10 l-1263 0 2 -2642z m2548 1648 c146 -24 287 -61 408 -106 482 -181 798 -569 906 -1110 98 -491 24 -1008 -198 -1384 -236 -397 -613 -626 -1161 -707 -50 -7 -288 -13 -632 -16 l-553 -5 0 1677 0 1676 563 -4 c472 -3 579 -6 667 -21z" fill="#ffffff"/>
<path d="M20348 3253 l-858 -858 0 -1193 0 -1192 1203 0 1202 0 855 855 855 855 -1197 0 -1198 0 -2 1195 -3 1195 -857 -857z" fill="#ffffff"/>
</g>
</svg>