<svg width="16" height="16" viewBox="0 0 16 16" fill="none" xmlns="http://www.w3.org/2000/svg">
<g clip-path="url(#clip0_216_55)">
<path fill-rule="evenodd" clip-rule="evenodd" d="M11.702 10.7373C11.848 10.6643 12.0157 10.6474 12.1734 10.6898C12.331 10.7322 12.4676 10.8309 12.5573 10.9673L12.596 11.0353L13.9293 13.702C13.9769 13.7971 14.001 13.9022 13.9997 14.0085C13.9984 14.1149 13.9716 14.2193 13.9217 14.3132C13.8718 14.4071 13.8002 14.4877 13.7128 14.5483C13.6254 14.6088 13.5247 14.6476 13.4193 14.6613L13.3333 14.6667H2.66664C2.56028 14.6667 2.45547 14.6413 2.36094 14.5926C2.2664 14.5438 2.18491 14.4732 2.12324 14.3865C2.06158 14.2999 2.02155 14.1997 2.00648 14.0945C1.99141 13.9892 2.00175 13.8818 2.03664 13.7813L2.06997 13.7013L3.4033 11.0347C3.47804 10.8802 3.60945 10.7605 3.77021 10.7005C3.93096 10.6404 4.10868 10.6447 4.26636 10.7124C4.42405 10.7801 4.54957 10.9059 4.6168 11.0638C4.68403 11.2217 4.68779 11.3994 4.6273 11.56L4.59597 11.6313L3.7453 13.3333H12.2546L11.404 11.6313C11.325 11.4733 11.3121 11.2903 11.3679 11.1227C11.4238 10.955 11.544 10.8164 11.702 10.7373ZM7.99997 1.33334C9.23765 1.33334 10.4246 1.82501 11.2998 2.70018C12.175 3.57535 12.6666 4.76233 12.6666 6.00001C12.6666 7.58801 11.8073 8.87801 10.918 9.79334C10.4267 10.2923 9.88667 10.7408 9.30597 11.132L9.0573 11.296L8.83597 11.4353C8.8013 11.456 8.76797 11.4753 8.73664 11.4953L8.5653 11.594C8.2133 11.794 7.78664 11.794 7.43464 11.594L7.2633 11.4947L7.05664 11.3687C7.01849 11.3447 6.98049 11.3205 6.94264 11.296L6.69397 11.132C6.11327 10.7408 5.57323 10.2923 5.08197 9.79334C4.19264 8.87801 3.3333 7.58801 3.3333 6.00001C3.3333 4.76233 3.82497 3.57535 4.70014 2.70018C5.57531 1.82501 6.76229 1.33334 7.99997 1.33334ZM7.99997 2.66668C7.11592 2.66668 6.26807 3.01787 5.64295 3.64299C5.01783 4.26811 4.66664 5.11596 4.66664 6.00001C4.66664 7.09068 5.25997 8.06334 6.03797 8.86401C6.50565 9.337 7.02284 9.75831 7.58064 10.1207L7.8073 10.2653C7.8773 10.3087 7.94197 10.3473 7.99997 10.3813L8.1933 10.2653L8.4193 10.1207C8.9771 9.75831 9.4943 9.337 9.96197 8.86401C10.74 8.06401 11.3333 7.09068 11.3333 6.00001C11.3333 5.11596 10.9821 4.26811 10.357 3.64299C9.73187 3.01787 8.88403 2.66668 7.99997 2.66668ZM7.99997 4.00001C8.5304 4.00001 9.03911 4.21072 9.41418 4.5858C9.78926 4.96087 9.99997 5.46958 9.99997 6.00001C9.99997 6.53044 9.78926 7.03915 9.41418 7.41422C9.03911 7.7893 8.5304 8.00001 7.99997 8.00001C7.46954 8.00001 6.96083 7.7893 6.58576 7.41422C6.21068 7.03915 5.99997 6.53044 5.99997 6.00001C5.99997 5.46958 6.21068 4.96087 6.58576 4.5858C6.96083 4.21072 7.46954 4.00001 7.99997 4.00001ZM7.99997 5.33334C7.82316 5.33334 7.65359 5.40358 7.52857 5.52861C7.40354 5.65363 7.3333 5.8232 7.3333 6.00001C7.3333 6.17682 7.40354 6.34639 7.52857 6.47141C7.65359 6.59644 7.82316 6.66668 7.99997 6.66668C8.17678 6.66668 8.34635 6.59644 8.47138 6.47141C8.5964 6.34639 8.66664 6.17682 8.66664 6.00001C8.66664 5.8232 8.5964 5.65363 8.47138 5.52861C8.34635 5.40358 8.17678 5.33334 7.99997 5.33334Z" fill="#F2F2F2"/>
</g>
<defs>
<clipPath id="clip0_216_55">
<rect width="16" height="16" fill="white"/>
</clipPath>
</defs>
</svg>
