<svg width="47" height="48" viewBox="0 0 47 48" fill="none" xmlns="http://www.w3.org/2000/svg">
<g clip-path="url(#clip0_193_116)">
<path d="M47 23.7104C47 36.814 36.4676 47.4207 23.5 47.4207C10.5126 47.4207 0 36.794 0 23.7104C0 10.6067 10.5324 0 23.5 0C36.4676 0 47 10.6067 47 23.7104Z" fill="#F2F2F2"/>
<path d="M25.8559 10.2472C25.658 10.2072 24.6681 10.0474 23.5 10.0474C22.3319 10.0474 21.342 10.2072 21.1441 10.2472C21.0253 10.2672 20.9857 10.1473 21.0649 10.0874C21.1441 10.0275 23.5 8.20974 23.5 8.20974C23.5 8.20974 25.8559 10.0275 25.9351 10.0874C26.0143 10.1473 25.9747 10.2672 25.8559 10.2472ZM21.7776 21.9925C21.7776 21.9925 21.6588 22.0325 21.6192 22.1523C22.1141 22.5318 22.4507 23.4107 23.4802 23.4107C24.5097 23.4107 24.8462 22.5318 25.3412 22.1523C25.3016 22.0325 25.1828 21.9925 25.1828 21.9925C25.1828 21.9925 24.5295 22.1523 23.4802 22.1523C22.4309 22.1523 21.7776 21.9925 21.7776 21.9925ZM23.4802 20.5343C23.203 20.5343 23.1238 20.4345 22.9457 20.4345C22.7675 20.4345 22.3913 20.5943 22.3121 20.7141C22.3121 20.774 22.3517 20.834 22.3913 20.8939C22.8071 20.9538 23.005 21.1935 23.4802 21.1935C23.9553 21.1935 24.1533 20.9538 24.5691 20.8939C24.6285 20.834 24.6483 20.774 24.6483 20.7141C24.5691 20.5743 24.2127 20.4345 24.0147 20.4345C23.8366 20.4145 23.7772 20.5343 23.4802 20.5343ZM46.9604 25.0087C46.9208 25.568 46.8812 26.1473 46.8218 26.6866C44.1689 27.1261 43.2186 24.7491 40.4865 24.8489C40.6449 25.4282 40.7835 26.0275 40.8825 26.6267C43.1394 26.6267 44.0303 28.7441 46.5446 28.4245C46.4061 29.0637 46.2477 29.7029 46.0695 30.3421C44.0897 30.5418 43.3968 28.5643 41.1003 28.6042C41.12 28.9438 41.12 29.2634 41.12 29.603C41.12 29.7828 41.12 29.9825 41.1003 30.1623C43.0602 30.1423 43.6938 31.9601 45.5548 31.8802C45.3172 32.5194 45.0598 33.1386 44.7826 33.7578C43.4364 33.6779 42.981 31.9601 40.9617 32.0999C40.9023 32.5393 40.8231 32.9788 40.7241 33.4182C42.4861 33.2984 42.8623 34.9363 44.1293 35.0562C43.8125 35.6554 43.4562 36.2347 43.0998 36.794C42.3475 36.3945 41.6942 35.176 40.2885 35.0961C40.4271 34.6367 40.5657 34.1773 40.6647 33.7179C39.3976 33.7179 37.9722 33.2185 36.7645 32.1199C37.1605 29.8627 33.6959 27.5855 33.6959 25.9276C33.6959 24.1498 34.5868 23.1511 34.5868 20.7341C34.5868 18.9363 33.7157 16.9988 32.4288 15.6804C32.1714 15.4207 31.9141 15.221 31.6171 15.0212C32.805 16.5194 33.7355 18.2772 33.7355 20.3346C33.7355 22.6117 32.6862 23.8102 32.6862 25.9076C32.6862 28.005 35.735 29.8227 35.735 31.98C35.735 32.839 35.4579 33.6579 34.5868 35.2959C35.9528 36.6742 37.7346 37.4132 38.8829 37.4132C39.2591 37.4132 39.457 37.2934 39.5956 37.0137C39.7144 36.7541 39.8134 36.4944 39.9124 36.2347C41.1398 36.2747 41.714 37.4132 42.3871 37.8727C42.0109 38.372 41.615 38.8714 41.1992 39.3508C40.7439 38.8315 40.1302 37.9725 39.2195 37.7328C39.0611 38.0524 38.8829 38.3521 38.7047 38.6717C39.4768 38.8914 40.0114 39.6704 40.4271 40.1898C39.9916 40.6492 39.5164 41.0886 39.0413 41.5281C38.7443 41.0687 38.2692 40.4694 37.7544 40.1298C37.5564 40.3895 37.3585 40.6492 37.1605 40.9089C37.6158 41.2085 37.992 41.7678 38.2494 42.2072C37.695 42.6667 37.1209 43.0861 36.527 43.4856C36.23 41.0687 32.9831 39.4307 33.8542 36.6342C33.5573 37.1336 33.2207 37.7528 33.2207 38.4919C33.2207 40.5094 35.3589 42.1273 35.5173 44.1248C35.0817 44.3845 34.6264 44.6442 34.1512 44.8839C34.072 42.6667 31.8151 40.2497 31.8151 38.4519C31.8151 36.4345 34.4482 34.397 34.4482 32C34.4482 29.603 31.4191 27.9451 31.4191 25.8477C31.4191 23.7503 32.706 22.5518 32.706 19.8552C32.706 17.8777 31.7755 15.9001 30.35 14.6217C30.0927 14.402 29.8551 14.2222 29.5383 14.0624C30.8846 15.7004 31.6765 17.1785 31.6765 19.4357C31.6765 21.9725 30.1917 23.3708 30.1917 25.8477C30.1917 28.3246 33.1613 29.7029 33.1613 32C33.1613 34.2971 30.3896 36.2547 30.3896 38.6317C30.3896 40.789 32.8248 42.9463 32.8644 45.5031C32.3298 45.7428 31.7953 45.9625 31.2409 46.1423C31.5577 43.5655 28.8058 40.8889 28.8058 38.7715C28.8058 36.4744 31.6765 34.4769 31.6765 32C31.6765 29.5231 28.7662 28.3645 28.7662 25.8077C28.7662 23.2509 30.5678 21.8327 30.5678 19.0162C30.5678 16.819 29.4987 14.8414 27.9149 13.623C27.8753 13.603 27.8555 13.563 27.8159 13.5431C27.6773 13.4232 27.5387 13.563 27.6575 13.7029C28.7662 15.1011 29.3601 16.5194 29.3601 18.6167C29.3601 21.1935 27.3012 23.2909 27.3012 25.7878C27.3012 28.7441 30.0729 29.583 30.0729 32C30.0729 34.417 27.1032 36.3546 27.1032 38.9313C27.1032 41.3084 29.9145 43.965 29.4195 46.7016C28.8652 46.8414 28.2911 46.9813 27.7169 47.0812C28.2515 43.6654 25.4996 41.1885 25.4996 38.9513C25.4996 36.5343 28.5682 34.3571 28.5682 32C28.5682 29.7628 26.3707 29.0437 26.0737 26.7466C26.0341 26.427 25.7767 26.2072 25.4402 26.2672C24.9848 26.3471 24.4107 26.6467 23.5198 26.6467C22.6091 26.6467 22.0548 26.3471 21.5994 26.2672C21.2628 26.2072 21.0055 26.4469 20.9659 26.7466C20.6689 29.0437 18.4714 29.7628 18.4714 32C18.4714 34.377 21.54 36.5343 21.54 38.9513C21.54 41.1885 18.7881 43.6454 19.3227 47.0812C18.7485 46.9813 18.1744 46.8414 17.62 46.7016C17.1449 43.9451 19.9364 41.3084 19.9364 38.9313C19.9364 36.3546 16.9667 34.417 16.9667 32C16.9667 29.583 19.7384 28.7441 19.7384 25.7878C19.7384 23.2909 17.6794 21.1935 17.6794 18.6167C17.6794 16.5194 18.2734 15.1011 19.382 13.7029C19.481 13.563 19.3623 13.4432 19.2237 13.5431C19.1841 13.563 19.1643 13.603 19.1247 13.623C17.5607 14.8414 16.4718 16.819 16.4718 19.0162C16.4718 21.8327 18.2734 23.2509 18.2734 25.8077C18.2734 28.3645 15.3631 29.5231 15.3631 32C15.3631 34.4769 18.2338 36.4744 18.2338 38.7715C18.2338 40.8889 15.4819 43.5456 15.7986 46.1423C15.2443 45.9426 14.7098 45.7428 14.1752 45.5031C14.2148 42.9463 16.65 40.789 16.65 38.6317C16.65 36.2547 13.8783 34.3171 13.8783 32C13.8783 29.6829 16.8479 28.3246 16.8479 25.8477C16.8479 23.3708 15.3631 21.9725 15.3631 19.4357C15.3631 17.1785 16.155 15.7004 17.5013 14.0624C17.2043 14.2222 16.9469 14.402 16.6895 14.6217C15.2641 15.9001 14.3336 17.8976 14.3336 19.8552C14.3336 22.5518 15.6205 23.7503 15.6205 25.8477C15.6205 27.9451 12.5914 29.603 12.5914 32C12.5914 34.397 15.2245 36.4145 15.2245 38.4519C15.2245 40.2697 12.9676 42.6866 12.8884 44.8839C12.433 44.6442 11.9777 44.4045 11.5223 44.1248C11.7005 42.1074 13.8387 40.5094 13.8387 38.4919C13.8387 37.7528 13.5021 37.1336 13.2051 36.6342C14.0762 39.4307 10.8294 41.0886 10.5324 43.4856C9.93849 43.0861 9.36436 42.6667 8.81002 42.2072C9.06739 41.7678 9.46335 41.2085 9.8989 40.9089C9.70092 40.6492 9.48315 40.4095 9.30497 40.1298C8.77042 40.4494 8.31507 41.0487 8.01811 41.5281C7.54296 41.1086 7.06781 40.6492 6.63226 40.1898C7.04801 39.6704 7.58256 38.8714 8.35467 38.6717C8.17649 38.372 7.99831 38.0524 7.83993 37.7328C6.92923 37.9725 6.3155 38.8315 5.86015 39.3508C5.44439 38.8714 5.04844 38.392 4.67228 37.8727C5.3652 37.4132 5.91954 36.2946 7.1668 36.2347C7.26579 36.4944 7.38458 36.7541 7.48357 37.0137C7.62215 37.3134 7.82013 37.4132 8.19629 37.4132C9.34456 37.4132 11.1264 36.6542 12.4924 35.2959C11.6015 33.6579 11.3441 32.839 11.3441 31.98C11.3441 29.8227 14.393 28.005 14.393 25.9076C14.393 23.8102 13.3437 22.6117 13.3437 20.3346C13.3437 18.2772 14.2544 16.5194 15.4621 15.0212C15.1651 15.201 14.9077 15.4207 14.6504 15.6804C13.3437 16.9988 12.4924 18.9563 12.4924 20.7341C12.4924 23.1511 13.3833 24.1298 13.3833 25.9276C13.3833 27.5855 9.9187 29.8627 10.3147 32.1199C9.10699 33.2385 7.66175 33.7179 6.39469 33.7179C6.51347 34.1773 6.63226 34.6367 6.77085 35.0961C5.3454 35.176 4.69208 36.3945 3.95956 36.794C3.5834 36.2347 3.24683 35.6554 2.93007 35.0562C4.19713 34.9164 4.57329 33.2784 6.33529 33.4182C6.2363 32.9788 6.15711 32.5393 6.09772 32.0999C4.05854 31.9601 3.6032 33.6979 2.27674 33.7578C1.99957 33.1386 1.7422 32.5194 1.50463 31.8802C3.36562 31.9601 3.99915 30.1423 5.93934 30.1623C5.93934 29.9825 5.93934 29.8027 5.93934 29.603C5.93934 29.2634 5.95914 28.9438 5.95914 28.6042C3.66259 28.5443 2.96967 30.5418 0.989884 30.3421C0.811704 29.7228 0.653322 29.0836 0.514737 28.4245C3.00926 28.7441 3.91996 26.6067 6.17691 26.6267C6.2759 26.0275 6.41448 25.4282 6.57287 24.8489C3.84077 24.7291 2.89047 27.1261 0.237568 26.6866C0.158376 26.1273 0.118781 25.568 0.079185 25.0087C3.16764 25.3483 4.33571 22.7915 7.147 23.1111C7.40438 22.432 7.72114 21.7728 8.0775 21.1336C4.55349 20.5144 3.34582 23.4906 0.0593872 23.0312C0.336557 10.2472 10.7304 0 23.4802 0C36.2498 0 46.6238 10.2472 46.9802 23.0512C43.6938 23.5106 42.4861 20.5343 38.9621 21.1536C39.3184 21.7928 39.6154 22.4519 39.8926 23.1311C42.7039 22.7915 43.8521 25.3683 46.9604 25.0087ZM13.3833 15.0612C11.6609 14.3421 9.56234 14.5218 7.76074 15.6804C7.48357 14.0025 6.57287 12.5044 5.28601 11.6055C5.10783 11.4856 4.92965 11.6055 4.92965 11.8052C5.20682 15.3608 3.14785 18.437 0.613726 21.1536C3.22704 21.9526 5.44439 18.5568 8.81002 19.7353C10.0573 17.9176 11.6015 16.3196 13.3833 15.0612ZM23.4802 12.9238C21.3024 12.9238 19.4612 14.1623 18.9861 15.7803C18.9465 15.9001 19.0059 15.98 19.1445 15.9201C19.5404 15.7403 19.976 15.6604 20.4709 15.6604C21.3618 15.6604 22.1537 16 22.6091 16.5593C22.8071 17.2385 22.8269 18.2372 22.5893 18.7965C22.2329 18.7166 22.0944 18.437 21.738 18.437C21.3816 18.437 21.1045 18.6966 20.4907 18.6966C19.877 18.6966 19.8176 18.397 19.4216 18.397C18.9465 18.397 18.8673 18.8764 18.8673 19.4357C18.8673 21.8926 21.1045 25.2684 23.4802 25.2684C25.8559 25.2684 28.0931 21.8926 28.0931 19.4357C28.0931 18.8764 27.9743 18.417 27.4992 18.3571C27.2616 18.5368 27.024 18.6966 26.4697 18.6966C25.8559 18.6966 25.6976 18.437 25.3412 18.437C24.9056 18.437 24.9452 19.3558 24.4305 19.4157C24.0939 18.5968 24.0741 17.5181 24.3513 16.5793C24.8067 16 25.5986 15.6804 26.4895 15.6804C26.9646 15.6804 27.42 15.7603 27.8159 15.9401C27.9545 16 28.0139 15.9201 27.9743 15.8003C27.4992 14.1623 25.658 12.9238 23.4802 12.9238ZM26.9646 16.4395C26.4301 16.4395 25.8361 16.5993 25.4402 17.0387C25.4006 17.1586 25.4006 17.3383 25.46 17.4382C26.4103 17.1186 27.2418 17.0986 27.6575 17.5581C27.8753 17.3583 27.9347 17.1785 27.9347 16.9788C27.9347 16.6592 27.5981 16.4395 26.9646 16.4395ZM19.3227 17.5581C19.778 17.0986 20.7481 17.1186 21.738 17.4782C21.7776 16.9788 20.8867 16.4195 19.9958 16.4195C19.3425 16.4195 19.0257 16.6392 19.0257 16.9588C19.0455 17.1785 19.1049 17.3583 19.3227 17.5581ZM34.369 9.24844C32.6466 9.36829 31.1419 9.96754 29.9343 10.9663C30.449 9.48814 31.1024 8.20974 31.9339 6.97129C29.7363 7.21099 27.9149 8.00999 26.5687 9.40824L25.5194 6.63171L27.8357 4.55431L24.7275 4.33458L23.4802 1.41823L22.2329 4.33458L19.1247 4.55431L21.441 6.63171L20.3917 9.40824C19.0455 8.02996 17.2241 7.21099 15.0265 6.97129C15.858 8.20974 16.5114 9.50812 17.0261 10.9663C15.8184 9.96754 14.3138 9.36829 12.5914 9.24844C13.6209 10.5868 14.5316 12.025 15.2245 13.563C15.3037 13.7428 15.4621 13.8027 15.6403 13.7029C17.9962 12.5243 20.6491 11.8452 23.4802 11.8452C26.2915 11.8452 28.9444 12.5044 31.3201 13.7029C31.4983 13.8027 31.6567 13.7428 31.7359 13.563C32.409 12.025 33.3395 10.5868 34.369 9.24844ZM38.1306 19.7353C41.516 18.5568 43.7334 21.9326 46.3467 21.1536C43.8125 18.437 41.7536 15.3608 42.0307 11.8052C42.0505 11.6055 41.8526 11.4856 41.6942 11.6055C40.4073 12.5044 39.4966 14.0025 39.2195 15.6804C37.4377 14.5218 35.3391 14.362 33.5969 15.0612C35.3787 16.3196 36.9031 17.9176 38.1306 19.7353Z" fill="#00643C"/>
<path d="M37.695 48H37.3387V45.7229H36.5071V45.4033H38.5463V45.7229H37.695V48Z" fill="#00643C"/>
<path d="M40.2291 47.4008H40.2489L41.021 45.4033H41.5754V48H41.219V45.8227H41.1992L40.3479 48H40.1103L39.2392 45.8227V48H38.8829V45.4033H39.457L40.2291 47.4008Z" fill="#00643C"/>
</g>
<defs>
<clipPath id="clip0_193_116">
<rect width="47" height="48" fill="white"/>
</clipPath>
</defs>
</svg>
