<svg width="96" height="16" viewBox="0 0 96 16" fill="none" xmlns="http://www.w3.org/2000/svg">
<g clip-path="url(#clip0_776_336)">
<path d="M7.27999 1.91199C7.35335 1.78609 7.45845 1.68164 7.58478 1.60904C7.71112 1.53644 7.85428 1.49823 7.99999 1.49823C8.1457 1.49823 8.28886 1.53644 8.4152 1.60904C8.54153 1.68164 8.64663 1.78609 8.71999 1.91199L10.5833 5.11065L14.202 5.89465C14.3443 5.92558 14.4761 5.99329 14.5841 6.09101C14.6921 6.18873 14.7726 6.31306 14.8176 6.4516C14.8626 6.59014 14.8705 6.73806 14.8405 6.8806C14.8105 7.02314 14.7437 7.15533 14.6467 7.26399L12.18 10.0247L12.5533 13.708C12.5681 13.853 12.5445 13.9994 12.4849 14.1325C12.4254 14.2655 12.332 14.3807 12.2141 14.4664C12.0961 14.552 11.9578 14.6053 11.8128 14.6208C11.6679 14.6363 11.5214 14.6135 11.388 14.5547L7.99999 13.0613L4.61199 14.5547C4.4786 14.6135 4.33212 14.6363 4.18716 14.6208C4.0422 14.6053 3.90385 14.552 3.7859 14.4664C3.66796 14.3807 3.57457 14.2655 3.51504 14.1325C3.45551 13.9994 3.43193 13.853 3.44666 13.708L3.81999 10.0247L1.35332 7.26465C1.25614 7.156 1.18916 7.02376 1.15907 6.88113C1.12897 6.7385 1.13682 6.59047 1.18182 6.45182C1.22682 6.31317 1.30741 6.18875 1.41553 6.09099C1.52365 5.99322 1.65553 5.92552 1.79799 5.89465L5.41666 5.11065L7.27999 1.91199Z" fill="black"/>
</g>
<g clip-path="url(#clip1_776_336)">
<path d="M27.28 1.91199C27.3534 1.78609 27.4584 1.68164 27.5848 1.60904C27.7111 1.53644 27.8543 1.49823 28 1.49823C28.1457 1.49823 28.2889 1.53644 28.4152 1.60904C28.5415 1.68164 28.6466 1.78609 28.72 1.91199L30.5833 5.11065L34.202 5.89465C34.3443 5.92558 34.4761 5.99329 34.5841 6.09101C34.6921 6.18873 34.7726 6.31306 34.8176 6.4516C34.8626 6.59014 34.8705 6.73806 34.8405 6.8806C34.8105 7.02314 34.7437 7.15533 34.6467 7.26399L32.18 10.0247L32.5533 13.708C32.5681 13.853 32.5445 13.9994 32.4849 14.1325C32.4254 14.2655 32.332 14.3807 32.2141 14.4664C32.0961 14.552 31.9578 14.6053 31.8128 14.6208C31.6679 14.6363 31.5214 14.6135 31.388 14.5547L28 13.0613L24.612 14.5547C24.4786 14.6135 24.3321 14.6363 24.1872 14.6208C24.0422 14.6053 23.9038 14.552 23.7859 14.4664C23.668 14.3807 23.5746 14.2655 23.515 14.1325C23.4555 13.9994 23.4319 13.853 23.4467 13.708L23.82 10.0247L21.3533 7.26465C21.2561 7.156 21.1892 7.02376 21.1591 6.88113C21.129 6.7385 21.1368 6.59047 21.1818 6.45182C21.2268 6.31317 21.3074 6.18875 21.4155 6.09099C21.5236 5.99322 21.6555 5.92552 21.798 5.89465L25.4167 5.11065L27.28 1.91199Z" fill="black"/>
</g>
<g clip-path="url(#clip2_776_336)">
<path d="M47.28 1.91199C47.3534 1.78609 47.4584 1.68164 47.5848 1.60904C47.7111 1.53644 47.8543 1.49823 48 1.49823C48.1457 1.49823 48.2889 1.53644 48.4152 1.60904C48.5415 1.68164 48.6466 1.78609 48.72 1.91199L50.5833 5.11065L54.202 5.89465C54.3443 5.92558 54.4761 5.99329 54.5841 6.09101C54.6921 6.18873 54.7726 6.31306 54.8176 6.4516C54.8626 6.59014 54.8705 6.73806 54.8405 6.8806C54.8105 7.02314 54.7437 7.15533 54.6467 7.26399L52.18 10.0247L52.5533 13.708C52.5681 13.853 52.5445 13.9994 52.4849 14.1325C52.4254 14.2655 52.332 14.3807 52.2141 14.4664C52.0961 14.552 51.9578 14.6053 51.8128 14.6208C51.6679 14.6363 51.5214 14.6135 51.388 14.5547L48 13.0613L44.612 14.5547C44.4786 14.6135 44.3321 14.6363 44.1872 14.6208C44.0422 14.6053 43.9038 14.552 43.7859 14.4664C43.668 14.3807 43.5746 14.2655 43.515 14.1325C43.4555 13.9994 43.4319 13.853 43.4467 13.708L43.82 10.0247L41.3533 7.26465C41.2561 7.156 41.1892 7.02376 41.1591 6.88113C41.129 6.7385 41.1368 6.59047 41.1818 6.45182C41.2268 6.31317 41.3074 6.18875 41.4155 6.09099C41.5236 5.99322 41.6555 5.92552 41.798 5.89465L45.4167 5.11065L47.28 1.91199Z" fill="black"/>
</g>
<g clip-path="url(#clip3_776_336)">
<path d="M67.28 1.91199C67.3534 1.78609 67.4584 1.68164 67.5848 1.60904C67.7111 1.53644 67.8543 1.49823 68 1.49823C68.1457 1.49823 68.2889 1.53644 68.4152 1.60904C68.5415 1.68164 68.6466 1.78609 68.72 1.91199L70.5833 5.11065L74.202 5.89465C74.3443 5.92558 74.4761 5.99329 74.5841 6.09101C74.6921 6.18873 74.7726 6.31306 74.8176 6.4516C74.8626 6.59014 74.8705 6.73806 74.8405 6.8806C74.8105 7.02314 74.7437 7.15533 74.6467 7.26399L72.18 10.0247L72.5533 13.708C72.5681 13.853 72.5445 13.9994 72.4849 14.1325C72.4254 14.2655 72.332 14.3807 72.2141 14.4664C72.0961 14.552 71.9578 14.6053 71.8128 14.6208C71.6679 14.6363 71.5214 14.6135 71.388 14.5547L68 13.0613L64.612 14.5547C64.4786 14.6135 64.3321 14.6363 64.1872 14.6208C64.0422 14.6053 63.9038 14.552 63.7859 14.4664C63.668 14.3807 63.5746 14.2655 63.515 14.1325C63.4555 13.9994 63.4319 13.853 63.4467 13.708L63.82 10.0247L61.3533 7.26465C61.2561 7.156 61.1892 7.02376 61.1591 6.88113C61.129 6.7385 61.1368 6.59047 61.1818 6.45182C61.2268 6.31317 61.3074 6.18875 61.4155 6.09099C61.5236 5.99322 61.6555 5.92552 61.798 5.89465L65.4167 5.11065L67.28 1.91199Z" fill="black"/>
</g>
<g clip-path="url(#clip4_776_336)">
<path d="M87.28 1.91199C87.3534 1.78609 87.4584 1.68164 87.5848 1.60904C87.7111 1.53644 87.8543 1.49823 88 1.49823C88.1457 1.49823 88.2889 1.53644 88.4152 1.60904C88.5415 1.68164 88.6466 1.78609 88.72 1.91199L90.5833 5.11065L94.202 5.89465C94.3443 5.92558 94.4761 5.99329 94.5841 6.09101C94.6921 6.18873 94.7726 6.31306 94.8176 6.4516C94.8626 6.59014 94.8705 6.73806 94.8405 6.8806C94.8105 7.02314 94.7437 7.15533 94.6467 7.26399L92.18 10.0247L92.5533 13.708C92.5681 13.853 92.5445 13.9994 92.4849 14.1325C92.4254 14.2655 92.332 14.3807 92.2141 14.4664C92.0961 14.552 91.9578 14.6053 91.8128 14.6208C91.6679 14.6363 91.5214 14.6135 91.388 14.5547L88 13.0613L84.612 14.5547C84.4786 14.6135 84.3321 14.6363 84.1872 14.6208C84.0422 14.6053 83.9038 14.552 83.7859 14.4664C83.668 14.3807 83.5746 14.2655 83.515 14.1325C83.4555 13.9994 83.4319 13.853 83.4467 13.708L83.82 10.0247L81.3533 7.26465C81.2561 7.156 81.1892 7.02376 81.1591 6.88113C81.129 6.7385 81.1368 6.59047 81.1818 6.45182C81.2268 6.31317 81.3074 6.18875 81.4155 6.09099C81.5236 5.99322 81.6555 5.92552 81.798 5.89465L85.4167 5.11065L87.28 1.91199Z" fill="#0D0D0D" fill-opacity="0.16"/>
</g>
<defs>
<clipPath id="clip0_776_336">
<rect width="16" height="16" fill="white"/>
</clipPath>
<clipPath id="clip1_776_336">
<rect width="16" height="16" fill="white" transform="translate(20)"/>
</clipPath>
<clipPath id="clip2_776_336">
<rect width="16" height="16" fill="white" transform="translate(40)"/>
</clipPath>
<clipPath id="clip3_776_336">
<rect width="16" height="16" fill="white" transform="translate(60)"/>
</clipPath>
<clipPath id="clip4_776_336">
<rect width="16" height="16" fill="white" transform="translate(80)"/>
</clipPath>
</defs>
</svg>
