<svg width="32" height="32" viewBox="0 0 32 32" fill="none" xmlns="http://www.w3.org/2000/svg">
<path d="M26.6667 4H5.33333C4.97971 4 4.64057 4.14048 4.39052 4.39052C4.14048 4.64057 4 4.97971 4 5.33333V26.6667C4 27.0203 4.14048 27.3594 4.39052 27.6095C4.64057 27.8595 4.97971 28 5.33333 28H26.6667C27.0203 28 27.3594 27.8595 27.6095 27.6095C27.8595 27.3594 28 27.0203 28 26.6667V5.33333C28 4.97971 27.8595 4.64057 27.6095 4.39052C27.3594 4.14048 27.0203 4 26.6667 4ZM11.1187 24.4493H7.556V12.996H11.1187V24.4493ZM9.33733 11.432C8.78993 11.432 8.26494 11.2145 7.87786 10.8275C7.49079 10.4404 7.27333 9.91541 7.27333 9.368C7.27333 8.82059 7.49079 8.29561 7.87786 7.90853C8.26494 7.52146 8.78993 7.304 9.33733 7.304C9.88474 7.304 10.4097 7.52146 10.7968 7.90853C11.1839 8.29561 11.4013 8.82059 11.4013 9.368C11.4013 9.91541 11.1839 10.4404 10.7968 10.8275C10.4097 11.2145 9.88474 11.432 9.33733 11.432ZM24.4507 24.4493H20.892V18.88C20.892 17.552 20.868 15.844 19.0413 15.844C17.188 15.844 16.9067 17.292 16.9067 18.7867V24.4507H13.3507V12.9973H16.764V14.5627H16.8133C17.2867 13.6627 18.4493 12.7133 20.1787 12.7133C23.784 12.7133 24.4493 15.084 24.4493 18.1693L24.4507 24.4493Z" fill="#F2F2F2"/>
</svg>
