<svg width="32" height="32" viewBox="0 0 32 32" fill="none" xmlns="http://www.w3.org/2000/svg">
<path d="M26.1773 10.6626C26.1947 10.896 26.1947 11.128 26.1947 11.36C26.1947 18.46 20.7907 26.6413 10.9147 26.6413C7.87199 26.6413 5.04532 25.76 2.66666 24.2293C3.09866 24.2786 3.51466 24.296 3.96399 24.296C6.38131 24.3018 8.73018 23.4935 10.632 22.0013C9.51122 21.981 8.42476 21.6113 7.52431 20.9436C6.62386 20.276 5.95437 19.3438 5.60932 18.2773C5.94132 18.3266 6.27466 18.36 6.62399 18.36C7.10532 18.36 7.58932 18.2933 8.03866 18.1773C6.82234 17.9317 5.72862 17.2724 4.94348 16.3116C4.15834 15.3507 3.73025 14.1475 3.73199 12.9066V12.84C4.44799 13.2386 5.27866 13.488 6.15866 13.5213C5.42144 13.0314 4.81695 12.3667 4.39911 11.5864C3.98127 10.8061 3.76307 9.93445 3.76399 9.04931C3.76399 8.05198 4.02932 7.13731 4.49466 6.33998C5.84417 8 7.52733 9.35806 9.4351 10.3262C11.3429 11.2943 13.4327 11.8509 15.5693 11.96C15.4867 11.56 15.436 11.1453 15.436 10.7293C15.4356 10.0239 15.5743 9.32539 15.8441 8.67363C16.1139 8.02187 16.5095 7.42968 17.0082 6.93089C17.507 6.43211 18.0992 6.03652 18.751 5.76675C19.4027 5.49697 20.1013 5.35829 20.8067 5.35864C22.3533 5.35864 23.7493 6.00664 24.7307 7.05464C25.933 6.82213 27.086 6.38321 28.1387 5.75731C27.7379 6.9984 26.8983 8.05078 25.7773 8.71731C26.8437 8.59568 27.8859 8.31525 28.8693 7.88531C28.1348 8.95611 27.2247 9.8951 26.1773 10.6626Z" fill="#F2F2F2"/>
</svg>
